HIERARCHY
ROOT Hips
{
	OFFSET 50.780602 -13.637514 86.609596
	CHANNELS 6 Xposition Yposition Zposition Xrotation Yrotation Zrotation
	JOINT spine
	{
		OFFSET 0.000000 -0.393701 6.846367
		CHANNELS 3 Xrotation Yrotation Zrotation
		JOINT spine1
		{
			OFFSET 0.000000 -0.000002 9.496208
			CHANNELS 3 Xrotation Yrotation Zrotation
			JOINT spine2
			{
				OFFSET 0.000000 -0.000001 9.099091
				CHANNELS 3 Xrotation Yrotation Zrotation
				JOINT Neck
				{
					OFFSET 0.000000 -1.113784 23.361198
					CHANNELS 3 Xrotation Yrotation Zrotation
					JOINT Head
					{
						OFFSET 0.000000 -0.000001 7.058014
						CHANNELS 3 Xrotation Yrotation Zrotation
						End Site
						{
							OFFSET 0.000000 5.634187 17.084396
						}
					}
				}
				JOINT RightShoulder
				{
					OFFSET -3.831360 0.533489 9.826309
					CHANNELS 3 Xrotation Yrotation Zrotation
					JOINT RightArm
					{
						OFFSET 0.000000 -0.000002 12.888100
						CHANNELS 3 Xrotation Yrotation Zrotation
						JOINT RightArmRoll
						{
							OFFSET 0.000000 -0.000001 6.506165
							CHANNELS 3 Xrotation Yrotation Zrotation
							JOINT RightForeArm
							{
								OFFSET 0.000000 -0.000003 18.950104
								CHANNELS 3 Xrotation Yrotation Zrotation
								JOINT RightForeArmRoll
								{
									OFFSET 0.000000 -0.000002 7.300919
									CHANNELS 3 Xrotation Yrotation Zrotation
									JOINT RightHand
									{
										OFFSET 0.000000 -0.000002 14.651398
										CHANNELS 3 Xrotation Yrotation Zrotation
										End Site
										{
											OFFSET 0.000000 0.000000 0.100006
										}
									}
								}
							}
						}
					}
				}
				JOINT LeftShoulder
				{
					OFFSET 3.831360 0.533489 9.826309
					CHANNELS 3 Xrotation Yrotation Zrotation
					JOINT LeftArm
					{
						OFFSET 0.000000 -0.000002 12.888100
						CHANNELS 3 Xrotation Yrotation Zrotation
						JOINT LeftArmRoll
						{
							OFFSET 0.000000 -0.000001 6.506165
							CHANNELS 3 Xrotation Yrotation Zrotation
							JOINT LeftForeArm
							{
								OFFSET 0.000000 -0.000003 18.950104
								CHANNELS 3 Xrotation Yrotation Zrotation
								JOINT LeftForeArmRoll
								{
									OFFSET 0.000000 -0.000002 7.300919
									CHANNELS 3 Xrotation Yrotation Zrotation
									JOINT LeftHand
									{
										OFFSET 0.000000 -0.000002 14.651398
										CHANNELS 3 Xrotation Yrotation Zrotation
										End Site
										{
											OFFSET 0.000000 0.000000 0.100006
										}
									}
								}
							}
						}
					}
				}
			}
		}
	}
	JOINT RightUpLeg
	{
		OFFSET -6.068371 0.933477 -1.112778
		CHANNELS 3 Xrotation Yrotation Zrotation
		JOINT RightUpLegRoll
		{
			OFFSET 0.000000 -0.000003 17.179604
			CHANNELS 3 Xrotation Yrotation Zrotation
			JOINT RightLeg
			{
				OFFSET 0.000000 0.000004 -21.274300
				CHANNELS 3 Xrotation Yrotation Zrotation
				JOINT RightLegRoll
				{
					OFFSET 0.000000 -0.000004 21.343903
					CHANNELS 3 Xrotation Yrotation Zrotation
					JOINT RightFoot
					{
						OFFSET 0.000000 -0.000003 17.765198
						CHANNELS 3 Xrotation Yrotation Zrotation
						JOINT RightToeBase
						{
							OFFSET 0.000000 -0.000002 14.850807
							CHANNELS 3 Xrotation Yrotation Zrotation
							End Site
							{
								OFFSET 0.006294 0.829004 7.192123
							}
						}
					}
				}
			}
		}
	}
	JOINT LeftUpLeg
	{
		OFFSET 6.068371 0.933477 -1.112778
		CHANNELS 3 Xrotation Yrotation Zrotation
		JOINT LeftUpLegRoll
		{
			OFFSET 0.000000 -0.000003 17.179703
			CHANNELS 3 Xrotation Yrotation Zrotation
			JOINT LeftLeg
			{
				OFFSET 0.000000 -0.000003 21.274200
				CHANNELS 3 Xrotation Yrotation Zrotation
				JOINT LeftLegRoll
				{
					OFFSET 0.000000 -0.000004 21.541206
					CHANNELS 3 Xrotation Yrotation Zrotation
					JOINT LeftFoot
					{
						OFFSET 0.000000 -0.000003 17.567902
						CHANNELS 3 Xrotation Yrotation Zrotation
						JOINT LeftToeBase
						{
							OFFSET 0.000000 -0.000002 14.850800
							CHANNELS 3 Xrotation Yrotation Zrotation
							End Site
							{
								OFFSET -0.028210 0.829003 7.192139
							}
						}
					}
				}
			}
		}
	}
}
MOTION
Frames: 4
Frame Time: 0.041667
52.486401 -11.266216 86.599800 0.698394 -1.741841 -2.498451 -2.016992 -1.330006 1.069164 -0.006293 -2.699010 2.104633 1.639064 -2.673357 2.136829 10.089620 14.864676 -4.417234 8.289221 -11.485215 -4.117815 -17.496815 -54.091898 -20.632883 -59.081621 -99.021788 -29.475695 -0.000002 0.000006 -0.000012 0.155019 -11.920261 -0.256120 -0.000001 -0.000006 -3.007570 -5.000210 -7.998733 0.000163 -29.523114 72.915329 33.937591 -81.842530 108.600991 49.398875 -0.000000 0.000003 -0.000006 0.769913 12.051547 -0.862241 -0.000001 -0.000002 2.999997 -5.000188 7.998743 -0.000169 -16.868322 -177.275306 -1.603913 -179.999991 0.000005 -1.083004 154.399158 -3.387263 -1.352593 -0.000007 -0.000005 0.611337 74.133698 7.222198 0.772032 25.460988 -7.354002 0.000534 -12.608974 -178.550789 2.211704 -0.000005 -0.000004 -1.223689 -23.775723 1.855050 1.034430 -0.000005 -0.000002 -0.730756 76.472724 -6.830919 -1.710590 25.465776 7.351229 -0.007926 
52.460999 -11.320415 86.607605 0.697471 -1.742061 -2.508466 -2.016152 -1.330006 1.071673 -0.004585 -2.698000 2.109163 1.640775 -2.672306 2.141338 10.054164 14.857557 -4.416273 8.276405 -11.479443 -4.122783 -17.496894 -54.107437 -20.633122 -59.191697 -99.090028 -29.658826 -0.000002 0.000006 -0.000014 0.215267 -11.952823 -0.250963 -0.000001 -0.000005 -3.007571 -5.000209 -7.998735 0.000161 -29.463776 72.899224 33.873657 -81.781755 108.674641 49.442896 0.000002 0.000003 -0.000007 0.843146 12.113929 -0.864627 -0.000001 -0.000001 2.999999 -5.000190 7.998745 -0.000167 -16.867652 -177.280087 -1.610465 -179.999991 0.000005 -1.083003 154.402683 -3.382850 -1.352222 -0.000006 -0.000005 0.611400 74.130352 7.221116 0.772896 25.460990 -7.354000 0.000535 -12.604464 -178.552715 2.209083 -0.000005 -0.000004 -1.223660 -23.770547 1.856844 1.034452 -0.000005 -0.000002 -0.730739 76.471297 -6.830982 -1.711183 25.465778 7.351228 -0.007927 
52.477200 -11.281717 86.606796 0.695952 -1.742161 -2.518840 -2.015233 -1.330027 1.074274 -0.002696 -2.696970 2.113842 1.642656 -2.671235 2.146006 10.019204 14.849910 -4.415483 8.263260 -11.473277 -4.127859 -17.497507 -54.123392 -20.634001 -59.301068 -99.157961 -29.840338 -0.000002 0.000007 -0.000009 0.274734 -11.985268 -0.245761 -0.000003 -0.000005 -3.007571 -5.000212 -7.998733 0.000164 -29.402994 72.882558 33.808166 -81.718104 108.748073 49.484345 0.000005 0.000003 -0.000006 0.915989 12.176895 -0.867152 0.000000 -0.000002 2.999999 -5.000189 7.998743 -0.000168 -16.866372 -177.285811 -1.616958 -179.999991 0.000005 -1.083003 154.406357 -3.377540 -1.352426 -0.000006 -0.000005 0.611449 74.126779 7.220033 0.773974 25.460992 -7.353999 0.000534 -12.599351 -178.554655 2.205940 -0.000005 -0.000004 -1.223600 -23.765273 1.858869 1.034487 -0.000005 -0.000002 -0.730712 76.469896 -6.831114 -1.711684 25.465780 7.351228 -0.007926 
52.465599 -11.307217 86.609505 0.694020 -1.742182 -2.529489 -2.014252 -1.330058 1.076936 -0.000680 -2.695931 2.118627 1.644676 -2.670162 2.150769 9.984590 14.841853 -4.414817 8.249886 -11.467019 -4.132971 -17.498581 -54.139590 -20.635381 -59.410119 -99.225676 -30.020905 -0.000004 0.000007 -0.000009 0.333660 -12.017504 -0.240513 -0.000002 -0.000005 -3.007566 -5.000209 -7.998734 0.000163 -29.341396 72.865578 33.741807 -81.652261 108.821367 49.523711 0.000004 0.000003 -0.000003 0.988566 12.240138 -0.869826 -0.000001 -0.000001 2.999998 -5.000191 7.998743 -0.000167 -16.864582 -177.291521 -1.623608 -179.999991 0.000005 -1.083003 154.410100 -3.372220 -1.351607 -0.000006 -0.000005 0.611488 74.123282 7.218856 0.775035 25.460990 -7.354002 0.000534 -12.593632 -178.557551 2.202639 -0.000003 -0.000004 -1.223540 -23.760000 1.861050 1.034528 -0.000005 -0.000002 -0.730681 76.468523 -6.831267 -1.712086 25.465775 7.351228 -0.007926 
